<svg width="66" height="66" viewBox="0 0 66 66" fill="none" xmlns="http://www.w3.org/2000/svg">
<path d="M65.3581 26.5369H62.7V26.4H33V39.6H51.65C48.9291 47.284 41.618 52.8 33 52.8C22.0655 52.8 13.2 43.9345 13.2 33C13.2 22.0655 22.0655 13.2 33 13.2C38.0473 13.2 42.6393 15.1041 46.1357 18.2143L55.4697 8.8803C49.5759 3.38745 41.6922 0 33 0C14.7757 0 0 14.7757 0 33C0 51.2243 14.7757 66 33 66C51.2243 66 66 51.2243 66 33C66 30.7873 65.7723 28.6275 65.3581 26.5369Z" fill="#FFC107"/>
<path d="M3.80664 17.6402L14.6488 25.5915C17.5825 18.3282 24.6874 13.2 33.0017 13.2C38.0491 13.2 42.641 15.1041 46.1374 18.2143L55.4714 8.8803C49.5776 3.38745 41.6939 0 33.0017 0C20.3264 0 9.33414 7.15605 3.80664 17.6402Z" fill="#FF3D00"/>
<path d="M33.0013 66.0004C41.5252 66.0004 49.2703 62.7383 55.1261 57.4335L44.9126 48.7909C41.4881 51.3952 37.3036 52.8038 33.0013 52.8004C24.418 52.8004 17.1299 47.3273 14.3843 39.6895L3.62305 47.9807C9.08455 58.6677 20.1758 66.0004 33.0013 66.0004Z" fill="#4CAF50"/>
<path d="M65.3582 26.5364H62.7V26.3994H33V39.5994H51.65C50.3484 43.2565 48.004 46.4522 44.9064 48.7916L44.9113 48.7883L55.1249 57.431C54.4022 58.0877 66 49.4994 66 32.9994C66 30.7868 65.7723 28.6269 65.3582 26.5364Z" fill="#1976D2"/>
</svg>
