<?xml version="1.0" encoding="utf-8"?>
<!-- Generator: Adobe Illustrator 26.5.0, SVG Export Plug-In . SVG Version: 6.00 Build 0)  -->
<svg version="1.1" id="Layer_1" xmlns="http://www.w3.org/2000/svg" xmlns:xlink="http://www.w3.org/1999/xlink" x="0px" y="0px"
	 viewBox="0 0 20 20" style="enable-background:new 0 0 20 20;" xml:space="preserve">
<style type="text/css">
	.st0{fill:#FEFEFE;}
	.st1{fill:#FCFCFC;}
</style>
<path d="M15.9,5.64c0.35-0.35,0.67-0.67,0.99-0.99c0.44-0.44,0.96-0.44,1.41,0c0.14,0.14,0.29,0.28,0.43,0.43
	c0.38,0.39,0.38,0.92,0,1.3c-2.09,2.09-4.18,4.18-6.27,6.27c-0.06,0.06-0.13,0.11-0.22,0.13c-0.59,0.15-1.17,0.3-1.76,0.45
	c-0.3,0.07-0.48-0.12-0.41-0.41c0.15-0.57,0.31-1.15,0.46-1.72c0.03-0.11,0.09-0.19,0.17-0.27c1.49-1.49,2.98-2.98,4.48-4.47
	c0.08-0.07,0.11-0.15,0.11-0.26c0-0.79,0-1.59,0-2.38c0-0.46-0.26-0.72-0.72-0.72c-3.32,0-6.64,0-9.95,0
	c-0.46,0-0.72,0.26-0.72,0.72c0,3.6,0,7.21,0,10.81c0,0.47,0.25,0.72,0.72,0.72c1.57,0,3.14,0,4.71,0c0.14,0,0.26,0.04,0.37,0.12
	c0.79,0.57,1.59,1.14,2.39,1.71c0.04,0.03,0.08,0.06,0.13,0.09c0.04-0.04,0.02-0.09,0.02-0.13c0-0.29,0-0.58,0-0.87
	c0-0.09,0.03-0.19-0.01-0.26c-0.04-0.08-0.15-0.02-0.23-0.04c-0.14-0.03-0.25-0.15-0.26-0.29c-0.01-0.14,0.09-0.27,0.24-0.3
	c0.05-0.01,0.11-0.01,0.17-0.01c0.81,0,1.62,0,2.43,0c0.46,0,0.71-0.25,0.71-0.71c0-1.09,0-2.19,0-3.28c0-0.06,0-0.13,0.01-0.19
	c0.03-0.15,0.16-0.24,0.3-0.24c0.15,0,0.27,0.12,0.3,0.27c0.01,0.05,0,0.09,0,0.14c0,1.09,0,2.19,0,3.28c0,0.81-0.53,1.34-1.34,1.34
	c-0.53,0-1.06,0-1.59,0c-0.1,0-0.13,0.03-0.13,0.13c0,0.56,0,1.12,0,1.68c0,0.15-0.01,0.29-0.17,0.37
	c-0.16,0.08-0.28,0.01-0.41-0.08c-0.94-0.67-1.88-1.34-2.82-2.02c-0.08-0.06-0.16-0.08-0.26-0.08c-1.52,0-3.04,0-4.56,0
	c-0.83,0-1.36-0.53-1.36-1.36c0-3.59,0-7.19,0-10.78c0-0.68,0.38-1.18,1-1.32C4.38,2.4,4.49,2.4,4.6,2.4c3.32,0,6.65,0,9.97,0
	c0.8,0,1.33,0.53,1.33,1.34c0,0.57,0,1.14,0,1.71C15.9,5.5,15.9,5.55,15.9,5.64z"/>
<path d="M10.26,7.45c0.53,0,1.07,0,1.6,0c0.13,0,0.25,0.04,0.32,0.16c0.1,0.16,0.02,0.37-0.16,0.44c-0.07,0.03-0.14,0.03-0.21,0.03
	c-1.04,0-2.07,0-3.11,0c-0.03,0-0.06,0-0.09,0C8.41,8.05,8.28,7.92,8.28,7.75c0-0.17,0.14-0.3,0.33-0.3c0.41,0,0.82,0,1.23,0
	C9.98,7.45,10.12,7.45,10.26,7.45z"/>
<path d="M7.64,13.2c-0.48,0-0.95,0-1.43,0c-0.25,0-0.4-0.19-0.33-0.4c0.05-0.14,0.15-0.21,0.3-0.21c0.97,0,1.95,0,2.92,0
	c0.19,0,0.32,0.14,0.32,0.31c0,0.17-0.14,0.3-0.33,0.3C8.6,13.2,8.12,13.2,7.64,13.2z"/>
<path d="M7.41,5.49c-0.4,0-0.8,0-1.2,0c-0.22,0-0.36-0.12-0.36-0.3c0-0.18,0.14-0.3,0.35-0.31c0.8,0,1.6,0,2.41,0
	c0.22,0,0.35,0.12,0.34,0.31c0,0.18-0.13,0.3-0.34,0.3C8.22,5.5,7.81,5.49,7.41,5.49z"/>
<path d="M10.96,5.49c-0.31,0-0.61,0-0.92,0c-0.21,0-0.34-0.12-0.34-0.3c0-0.18,0.12-0.31,0.33-0.31c0.62,0,1.23,0,1.85,0
	c0.21,0,0.34,0.13,0.34,0.31c0,0.18-0.14,0.3-0.34,0.3C11.57,5.5,11.27,5.49,10.96,5.49z"/>
<path d="M6.76,7.45c0.19,0,0.37,0,0.56,0c0.19,0,0.32,0.13,0.33,0.3c0,0.16-0.13,0.3-0.31,0.31c-0.39,0.01-0.79,0.01-1.18,0
	c-0.18,0-0.31-0.15-0.3-0.31c0-0.17,0.14-0.3,0.33-0.3C6.38,7.45,6.57,7.45,6.76,7.45z"/>
<path d="M9.05,10.63c-0.18,0-0.35,0-0.53,0c-0.18-0.01-0.31-0.13-0.31-0.3c0-0.17,0.12-0.3,0.31-0.3c0.35-0.01,0.7,0,1.05,0
	c0.19,0,0.32,0.14,0.32,0.31c0,0.17-0.13,0.29-0.31,0.3C9.4,10.63,9.23,10.63,9.05,10.63z"/>
<path d="M6.8,10.63c-0.11,0-0.23,0-0.34,0c-0.17-0.01-0.29-0.13-0.3-0.3c0-0.16,0.12-0.3,0.29-0.3c0.23-0.01,0.46-0.01,0.7,0
	c0.17,0.01,0.29,0.14,0.29,0.3c0,0.16-0.12,0.29-0.29,0.3C7.03,10.63,6.91,10.63,6.8,10.63z"/>
<path d="M13.37,5.49c-0.1,0-0.21,0-0.31,0c-0.17-0.01-0.3-0.14-0.3-0.3c0-0.15,0.11-0.29,0.28-0.3c0.22-0.01,0.44-0.01,0.65,0
	c0.16,0.01,0.28,0.15,0.27,0.3c0,0.16-0.12,0.28-0.28,0.3C13.58,5.5,13.48,5.49,13.37,5.49C13.37,5.49,13.37,5.49,13.37,5.49z"/>
<path class="st0" d="M11.26,11.13c0.14-0.13,0.27-0.26,0.39-0.38c1.7-1.7,3.39-3.39,5.09-5.09c0.1-0.1,0.15-0.1,0.25,0
	c0.23,0.24,0.46,0.47,0.7,0.7c0.07,0.07,0.08,0.1,0.01,0.18c-1.81,1.81-3.62,3.62-5.43,5.43c-0.06,0.06-0.09,0.08-0.16,0.01
	C11.83,11.69,11.55,11.42,11.26,11.13z"/>
<path class="st1" d="M11.01,11.73c0.19,0.19,0.36,0.36,0.52,0.53c0.01,0.01,0.01,0.02,0.03,0.05c-0.25,0.07-0.5,0.14-0.77,0.21
	C10.86,12.26,10.93,12.01,11.01,11.73z"/>
</svg>
