<svg width="55" height="30" viewBox="0 0 55 30" fill="none" xmlns="http://www.w3.org/2000/svg">
<path d="M12.5299 29.1214C12.9381 29.5409 13.4582 29.8266 14.0244 29.9424C14.5906 30.0581 15.1774 29.9987 15.7108 29.7716C16.2441 29.5445 16.7 29.16 17.0207 28.6667C17.3414 28.1733 17.5126 27.5933 17.5126 26.9999V18H51.7871C52.5612 18 53.3036 17.6839 53.851 17.1213C54.3984 16.5587 54.7059 15.7956 54.7059 15C54.7059 14.2044 54.3984 13.4413 53.851 12.8787C53.3036 12.3161 52.5612 12 51.7871 12H17.5126V3.00007C17.5126 2.40671 17.3414 1.82669 17.0207 1.33334C16.7 0.839986 16.2441 0.455462 15.7108 0.228389C15.1774 0.00131554 14.5906 -0.0581095 14.0244 0.0576296C13.4582 0.173369 12.9381 0.459073 12.5299 0.878616L0.854837 12.8786C0.307489 13.4412 0 14.2043 0 15C0 15.7957 0.307489 16.5588 0.854837 17.1214L12.5299 29.1214Z" fill="#4C4C4C"/>
</svg>
