<?xml version="1.0" encoding="utf-8"?>
<!-- Generator: Adobe Illustrator 26.5.0, SVG Export Plug-In . SVG Version: 6.00 Build 0)  -->
<svg version="1.1" id="Layer_1" xmlns="http://www.w3.org/2000/svg" xmlns:xlink="http://www.w3.org/1999/xlink" x="0px" y="0px"
	 viewBox="0 0 40 40" style="enable-background:new 0 0 40 40;" xml:space="preserve">
<style type="text/css">
	.st0{fill:#FEFEFE;}
	.st1{fill:#030303;}
	.st2{fill:#020202;}
	.st3{fill:#010101;}
</style>
<path d="M26.43,35.78c-1.72-0.01-3.31-0.52-4.85-1.23c-6.04-2.78-10.52-7.2-13.54-13.1c-0.78-1.53-1.37-3.14-1.56-4.87
	c-0.19-1.7,0.17-3.19,1.47-4.39c0.7-0.64,1.31-1.39,2.04-2c1.1-0.91,2.44-0.93,3.5,0.02c1.34,1.2,2.61,2.48,3.81,3.82
	c0.84,0.94,0.81,2.33,0.01,3.31c-0.6,0.73-1.29,1.37-1.97,2.02c-0.16,0.15-0.2,0.25-0.09,0.47c0.82,1.63,2,2.98,3.29,4.25
	c1.14,1.12,2.36,2.12,3.8,2.84c0.2,0.1,0.31,0.1,0.47-0.06c0.67-0.66,1.3-1.37,2.02-1.97c0.97-0.81,2.37-0.81,3.3,0.03
	c1.27,1.14,2.46,2.36,3.62,3.61c1.19,1.28,1.15,2.7-0.05,3.99c-0.67,0.72-1.37,1.42-2.08,2.11C28.79,35.43,27.8,35.78,26.43,35.78z"
	/>
<path d="M24.86,4.22c2.92,0.01,5.29,2.38,5.28,5.3c0,2.92-2.37,5.29-5.29,5.29c-0.86,0-1.68-0.19-2.44-0.59
	c-0.16-0.08-0.29-0.09-0.46-0.04c-0.58,0.2-1.16,0.37-1.74,0.57c-0.2,0.07-0.39,0.11-0.55-0.07c-0.15-0.17-0.11-0.38-0.05-0.57
	c0.17-0.57,0.35-1.14,0.55-1.71c0.07-0.19,0.04-0.33-0.04-0.5C18.34,8.28,20.92,4.21,24.86,4.22z"/>
<path class="st0" d="M26.37,34.23c-1.28-0.03-2.59-0.43-3.86-0.99c-4.56-2-8.21-5.12-11.08-9.17c-1.28-1.81-2.32-3.75-2.99-5.88
	c-0.32-1.03-0.52-2.07-0.36-3.16c0.09-0.6,0.39-1.1,0.81-1.53c0.64-0.64,1.27-1.29,1.92-1.92c0.64-0.63,1.23-0.62,1.87,0.02
	c1.04,1.04,2.08,2.08,3.12,3.12c0.7,0.71,0.71,1.22,0,1.93c-0.59,0.6-1.19,1.18-1.79,1.76c-0.62,0.59-0.7,1.02-0.35,1.8
	c0.93,2.02,2.36,3.66,3.94,5.19c1.31,1.27,2.76,2.34,4.4,3.15c0.59,0.29,1.08,0.23,1.55-0.23c0.66-0.64,1.3-1.3,1.95-1.94
	c0.68-0.67,1.2-0.67,1.87,0c1.03,1.02,2.05,2.04,3.07,3.07c0.76,0.76,0.76,1.3,0,2.08c-0.59,0.6-1.17,1.19-1.75,1.79
	C28.1,33.94,27.36,34.24,26.37,34.23z"/>
<path class="st0" d="M20.59,13.76c0.15-0.47,0.27-0.9,0.42-1.31c0.1-0.26,0.07-0.48-0.06-0.73c-0.87-1.64-0.83-3.27,0.25-4.78
	c1.12-1.57,2.7-2.18,4.58-1.78c1.81,0.39,2.99,1.56,3.4,3.37c0.41,1.82-0.15,3.37-1.62,4.51c-1.51,1.17-3.17,1.26-4.87,0.39
	c-0.3-0.15-0.55-0.2-0.86-0.08C21.45,13.5,21.05,13.61,20.59,13.76z"/>
<path class="st1" d="M22.77,9c0.28,0,0.52,0.24,0.52,0.51c0,0.28-0.24,0.51-0.52,0.51c-0.28,0-0.52-0.23-0.51-0.51
	C22.25,9.23,22.48,9,22.77,9z"/>
<path class="st2" d="M24.84,9c0.28,0,0.52,0.24,0.51,0.52c0,0.28-0.24,0.51-0.53,0.5c-0.28,0-0.52-0.25-0.51-0.52
	C24.32,9.23,24.56,9,24.84,9z"/>
<path class="st3" d="M26.94,9c0.28,0.02,0.5,0.26,0.48,0.54c-0.02,0.28-0.26,0.5-0.54,0.48c-0.28-0.02-0.5-0.26-0.48-0.54
	C26.41,9.2,26.65,8.98,26.94,9z"/>
</svg>
