<svg width="25" height="22" viewBox="0 0 25 22" fill="none" xmlns="http://www.w3.org/2000/svg">
<path d="M8.55556 18.1622L11 19.3844V11.33C10.9986 11.0094 10.8714 10.7021 10.6456 10.4744L2.72555 2.44444H21.7433L13.8356 10.4744C13.6098 10.7021 13.4825 11.0094 13.4811 11.33L13.4444 20.7778L15.8889 22V11.8311L23.9311 3.66667C24.2528 3.34029 24.4366 2.90265 24.4444 2.44444V1.22222C24.4444 0.898069 24.3157 0.587192 24.0865 0.357981C23.8573 0.12877 23.5464 0 23.2222 0H1.22222C0.898069 0 0.587192 0.12877 0.357981 0.357981C0.12877 0.587192 0 0.898069 0 1.22222V2.44444C0.00781917 2.90265 0.191627 3.34029 0.513333 3.66667L8.55556 11.8311V18.1622Z" fill="black"/>
</svg>
