<svg width="80" height="76" viewBox="0 0 80 76" fill="none" xmlns="http://www.w3.org/2000/svg">
<path d="M40 0.00195312C17.9107 0.00195312 0 16.8946 0 37.7283C0 58.5619 17.9107 75.4546 40 75.4546C62.0893 75.4546 80 58.5619 80 37.7283C80 16.8946 62.0893 0.00195312 40 0.00195312ZM37.1429 19.5388C37.1429 19.1683 37.4643 18.8651 37.8571 18.8651H42.1429C42.5357 18.8651 42.8571 19.1683 42.8571 19.5388V42.444C42.8571 42.8146 42.5357 43.1177 42.1429 43.1177H37.8571C37.4643 43.1177 37.1429 42.8146 37.1429 42.444V19.5388ZM40 56.5914C38.8785 56.5698 37.8107 56.1345 37.0256 55.3788C36.2406 54.6231 35.8009 53.6073 35.8009 52.5493C35.8009 51.4913 36.2406 50.4755 37.0256 49.7198C37.8107 48.9641 38.8785 48.5288 40 48.5072C41.1215 48.5288 42.1893 48.9641 42.9744 49.7198C43.7594 50.4755 44.1991 51.4913 44.1991 52.5493C44.1991 53.6073 43.7594 54.6231 42.9744 55.3788C42.1893 56.1345 41.1215 56.5698 40 56.5914Z" fill="#CB1A1A"/>
</svg>
