<svg width="27" height="27" viewBox="0 0 27 27" fill="none" xmlns="http://www.w3.org/2000/svg">
<path d="M13.5 0C6.05764 0 0 6.05764 0 13.5C0 20.9424 6.05764 27 13.5 27C20.9424 27 27 20.9424 27 13.5C27 6.05764 20.9424 0 13.5 0ZM13.5 23.1429C8.18293 23.1429 3.85714 18.8171 3.85714 13.5C3.85714 8.18293 8.18293 3.85714 13.5 3.85714C18.8171 3.85714 23.1429 8.18293 23.1429 13.5C23.1429 18.8171 18.8171 23.1429 13.5 23.1429Z" fill="#FE7A36"/>
<path d="M13.5006 7.71387C10.3628 7.71387 7.71484 10.3618 7.71484 13.4996C7.71484 16.6374 10.3628 19.2853 13.5006 19.2853C16.6383 19.2853 19.2863 16.6374 19.2863 13.4996C19.2863 10.3618 16.6383 7.71387 13.5006 7.71387Z" fill="#FE7A36"/>
</svg>
