<svg width="66" height="65" viewBox="0 0 66 65" fill="none" xmlns="http://www.w3.org/2000/svg">
<path d="M30.2311 3.93058C31.2071 1.35647 34.9005 1.35647 35.8795 3.93058L42.1928 21.4186C42.635 22.5776 43.7604 23.3492 45.017 23.3492H60.5317C63.3986 23.3492 64.6491 26.9176 62.3952 28.6652L51.3546 38.5987C50.8601 38.9788 50.4986 39.5059 50.3222 40.1043C50.1458 40.7026 50.1634 41.3414 50.3726 41.9291L54.4045 59.0177C55.3866 61.7626 52.2086 64.1201 49.8053 62.4305L34.809 52.9148C34.2954 52.5539 33.683 52.3602 33.0553 52.3602C32.4276 52.3602 31.8152 52.5539 31.3016 52.9148L16.3053 62.4305C13.905 64.1201 10.724 61.7595 11.7061 59.0177L15.738 41.9291C15.9472 41.3414 15.9648 40.7026 15.7884 40.1043C15.6119 39.5059 15.2505 38.9788 14.756 38.5987L3.71537 28.6652C1.45845 26.9176 2.715 23.3492 5.5758 23.3492H21.0906C21.7014 23.3513 22.2985 23.1678 22.8028 22.823C23.3071 22.4783 23.6949 21.9886 23.9148 21.4186L30.228 3.93058H30.2311Z" stroke="#FE7A36" stroke-width="4" stroke-linecap="round" stroke-linejoin="round"/>
</svg>
