<svg width="67" height="65" viewBox="0 0 67 65" fill="none" xmlns="http://www.w3.org/2000/svg">
<path d="M30.6764 3.93058C31.6524 1.35647 35.3458 1.35647 36.3248 3.93058L42.6381 21.4186C43.0803 22.5776 44.2057 23.3492 45.4623 23.3492H60.977C63.8439 23.3492 65.0944 26.9176 62.8405 28.6652L51.7999 38.5987C51.3054 38.9788 50.944 39.5059 50.7675 40.1043C50.5911 40.7026 50.6087 41.3414 50.8179 41.9291L54.8498 59.0177C55.8319 61.7626 52.6539 64.1201 50.2506 62.4305L35.2543 52.9148C34.7407 52.5539 34.1283 52.3602 33.5006 52.3602C32.8729 52.3602 32.2605 52.5539 31.7469 52.9148L16.7506 62.4305C14.3504 64.1201 11.1693 61.7595 12.1514 59.0177L16.1833 41.9291C16.3925 41.3414 16.4101 40.7026 16.2337 40.1043C16.0573 39.5059 15.6958 38.9788 15.2013 38.5987L4.16068 28.6652C1.90376 26.9176 3.16032 23.3492 6.02111 23.3492H21.5359C22.1468 23.3513 22.7439 23.1678 23.2482 22.823C23.7525 22.4783 24.1402 21.9886 24.3601 21.4186L30.6734 3.93058H30.6764Z" fill="#FE7A36" stroke="#FE7A36" stroke-width="4" stroke-linecap="round" stroke-linejoin="round"/>
</svg>
